<svg width="30" height="24" viewBox="0 0 30 24" fill="none" xmlns="http://www.w3.org/2000/svg">
<path d="M28 13.5195L27.9492 17.125H1.94922L2 13.5195C2 9 5.09766 5.14062 9.05859 3.51562L11.75 8.13672V1.78906C11.75 1.28125 12.1055 0.875 12.6133 0.875H17.3359C17.8438 0.875 18.25 1.28125 18.25 1.78906V8.13672L20.8906 3.51562C24.8516 5.14062 28 9 28 13.5195ZM29.5234 19.2578C29.6758 19.5625 29.625 19.918 29.3203 20.1211C29.168 20.2734 25.8672 23.625 14.9492 23.625C4.03125 23.625 0.730469 20.2734 0.578125 20.1211C0.324219 19.918 0.273438 19.5625 0.425781 19.2578C0.527344 18.9531 0.832031 18.75 1.1875 18.75H28.8125C29.1172 18.75 29.4219 18.9531 29.5234 19.2578Z" fill="#143903"/>
</svg>
